<svg xmlns="http://www.w3.org/2000/svg" viewBox="0 0 48 48"><defs><style>.cls-1{fill:#dad7e5;}.cls-2{fill:#edebf2;}.cls-3{fill:#be927c;}.cls-4{fill:#9dcc6b;}.cls-5{fill:#db5669;}.cls-6{fill:#f26674;}.cls-7{fill:#fc6;}.cls-8{fill:#ffde76;}.cls-9{fill:#9fdbf3;}.cls-10{fill:#b2e5fb;}.cls-11{fill:#425b72;}.cls-12{fill:#b5e08c;}.cls-13{fill:#919191;}</style></defs><title>Ecommerce growth</title><g id="Ecommerce_growth" data-name="Ecommerce growth"><rect class="cls-1" x="11" y="25.82" width="26" height="21.18"/><path class="cls-2" d="M37,25.82V45H16a3,3,0,0,1-3-3V25.82Z"/><path class="cls-3" d="M23,16V9a1,1,0,0,1,2,0v7A1,1,0,0,1,23,16Z"/><path class="cls-4" d="M24,9H20a8,8,0,0,1-8-8h4A8,8,0,0,1,24,9Z"/><path class="cls-4" d="M24,9h4a8,8,0,0,0,8-8H32A8,8,0,0,0,24,9Z"/><rect class="cls-1" x="11" y="15" width="26" height="4"/><path class="cls-2" d="M37,15v2H15a2,2,0,0,1-2-2Z"/><path class="cls-5" d="M15,25v1a3,3,0,0,1-6,0V25Z"/><path class="cls-6" d="M15,25v1a3,3,0,0,1-2,2.82A3,3,0,0,1,11,26V25Z"/><path class="cls-7" d="M21,25v1a3,3,0,0,1-6,0V25Z"/><path class="cls-5" d="M27,25v1a3,3,0,0,1-6,0V25Z"/><path class="cls-7" d="M33,25v1a3,3,0,0,1-6,0V25Z"/><path class="cls-5" d="M39,25v1a3,3,0,0,1-6,0V25Z"/><polygon class="cls-5" points="17 19 15 25 9 25 11 19 17 19"/><path class="cls-6" d="M17,19l-1.33,4H13.06a1,1,0,0,1-1-1.32L13,19Z"/><polygon class="cls-7" points="22 19 21 25 15 25 17 19 22 19"/><path class="cls-8" d="M22,19l-.67,4H19.06a1,1,0,0,1-.95-1.32L19,19Z"/><polygon class="cls-5" points="39 25 33 25 31 19 37 19 39 25"/><path class="cls-6" d="M38.33,23c-3.28,0-3.93.21-4.23-.68L33,19h4Z"/><polygon class="cls-7" points="33 25 27 25 26 19 31 19 33 25"/><path class="cls-8" d="M32.33,23H29.52a1,1,0,0,1-1-.83L28,19h3Z"/><polygon class="cls-5" points="27 25 21 25 22 19 26 19 27 25"/><path class="cls-6" d="M26.67,23H24.51a1,1,0,0,1-1-1.17L24,19h2Z"/><rect class="cls-9" x="16" y="35" width="8" height="12"/><path class="cls-10" d="M24,35V45H21a3,3,0,0,1-3-3V35Z"/><rect class="cls-9" x="24" y="35" width="8" height="12"/><path class="cls-11" d="M21,42a1,1,0,1,1,.71-1.71A1,1,0,0,1,21,42Z"/><path class="cls-12" d="M23.75,7H21a8,8,0,0,1-7.75-6H16A8,8,0,0,1,23.75,7Z"/><path class="cls-12" d="M24.25,7H27a8,8,0,0,0,7.75-6H32A8,8,0,0,0,24.25,7Z"/><path class="cls-13" d="M39,48H9a1,1,0,0,1,0-2H39A1,1,0,0,1,39,48Z"/><path class="cls-10" d="M32,35V45H29a3,3,0,0,1-3-3V35Z"/><path class="cls-11" d="M27,42a1,1,0,0,1-1-1,1,1,0,1,1,1,1Z"/><path class="cls-8" d="M21,25v1a3,3,0,0,1-2,2.82A3,3,0,0,1,17,26V25Z"/><path class="cls-6" d="M27,25v1a3,3,0,0,1-2,2.82A3,3,0,0,1,23,26V25Z"/><path class="cls-8" d="M33,25v1a3,3,0,0,1-2,2.82A3,3,0,0,1,29,26V25Z"/><path class="cls-6" d="M39,25v1a3,3,0,0,1-2,2.82A3,3,0,0,1,35,26V25Z"/></g></svg>